<?xml version="1.0" encoding="UTF-8" standalone="no"?>
<!-- Generator: Adobe Illustrator 19.1.1, SVG Export Plug-In . SVG Version: 6.00 Build 0)  -->

<svg
   xmlns:dc="http://purl.org/dc/elements/1.1/"
   xmlns:cc="http://creativecommons.org/ns#"
   xmlns:rdf="http://www.w3.org/1999/02/22-rdf-syntax-ns#"
   xmlns:svg="http://www.w3.org/2000/svg"
   xmlns="http://www.w3.org/2000/svg"
   xmlns:sodipodi="http://sodipodi.sourceforge.net/DTD/sodipodi-0.dtd"
   xmlns:inkscape="http://www.inkscape.org/namespaces/inkscape"
   version="1.1"
   id="Layer_1"
   x="0px"
   y="0px"
   viewBox="0 0 592.90001 130.7"
   xml:space="preserve"
   inkscape:version="0.91 r13725"
   sodipodi:docname="logo.svg"
   width="592.90002"
   height="130.7"><metadata
     id="metadata109"><rdf:RDF><cc:Work
         rdf:about=""><dc:format>image/svg+xml</dc:format><dc:type
           rdf:resource="http://purl.org/dc/dcmitype/StillImage" /><dc:title></dc:title></cc:Work></rdf:RDF></metadata><defs
     id="defs107" /><sodipodi:namedview
     pagecolor="#000000"
     bordercolor="#666666"
     borderopacity="1"
     objecttolerance="10"
     gridtolerance="10"
     guidetolerance="10"
     inkscape:pageopacity="1"
     inkscape:pageshadow="2"
     inkscape:window-width="1394"
     inkscape:window-height="805"
     id="namedview105"
     showgrid="false"
     inkscape:zoom="0.98771535"
     inkscape:cx="316.49167"
     inkscape:cy="-2.3832024"
     inkscape:window-x="94"
     inkscape:window-y="40"
     inkscape:window-maximized="0"
     inkscape:current-layer="g5"
     fit-margin-top="0"
     fit-margin-left="0"
     fit-margin-right="0"
     fit-margin-bottom="0" /><style
     type="text/css"
     id="style3">
	.st0{fill:#FFFFFF;}
</style><g
     id="g5"
     transform="translate(-124.5,-232.8)"><g
       id="g7"><path
         class="st0"
         d="m 317,300.5 c 0,16.2 -9.8,30.6 -27.4,30.6 -5.7,0 -11.2,-0.7 -16.7,-2.2 l 0,-0.1 0,-56.6 c 4.3,-1.2 10.7,-1.9 16.7,-1.9 17.5,0.1 27.4,14.1 27.4,30.2 z m -7,0 c 0,-13.2 -7.5,-23.9 -20.5,-23.9 -2.6,0 -6.7,0.3 -10,1.2 l 0,45.3 c 2.9,1 6.4,1.6 10,1.6 13.4,0 20.5,-10.7 20.5,-24.2 z"
         id="path9"
         inkscape:connector-curvature="0"
         style="fill:#ffffff" /><path
         class="st0"
         d="m 356.5,302.2 0,25.2 c -4.6,1.9 -8.6,4 -15.9,4 -13.3,0 -19.4,-5.5 -19.4,-15 0,-11.5 12.3,-14 19.4,-14 4,0 7,0.6 9.6,1.6 l 0,-0.6 c 0,-7.2 -4.7,-11 -10.7,-11 -3.4,0 -7.5,0.7 -10.9,2.1 l -2.3,-5 c 4.1,-1.9 8.6,-2.8 13.4,-2.8 7.8,-0.1 16.8,5.4 16.8,15.5 z m -16,23.5 c 3.3,0 6.4,-0.6 9.6,-2 l 0,-14 c -3,-1.2 -6.3,-1.9 -9.6,-1.9 -4.7,0 -13.3,0.7 -13.3,8.7 0.1,6.4 4.5,9.2 13.3,9.2 z"
         id="path11"
         inkscape:connector-curvature="0"
         style="fill:#ffffff" /><path
         class="st0"
         d="m 384.8,324 0,5.6 c -0.4,0.5 -3.2,1.1 -4.7,1.1 -7.7,0 -14.3,-3.2 -14.3,-13.6 l 0,-39.2 6.5,-0.5 0,9.8 11.7,0 -0.5,5.6 -11.1,0 0,23.4 c 0,6.5 2.8,8.5 7.9,8.5 1.5,0 3.9,-0.4 4.5,-0.7 z"
         id="path13"
         inkscape:connector-curvature="0"
         style="fill:#ffffff" /><path
         class="st0"
         d="m 425.2,302.2 0,25.2 c -4.6,1.9 -8.6,4 -15.9,4 -13.3,0 -19.4,-5.5 -19.4,-15 0,-11.5 12.3,-14 19.4,-14 4,0 7,0.6 9.6,1.6 l 0,-0.6 c 0,-7.2 -4.7,-11 -10.7,-11 -3.4,0 -7.5,0.7 -10.9,2.1 l -2.3,-5 c 4.1,-1.9 8.6,-2.8 13.4,-2.8 7.9,-0.1 16.8,5.4 16.8,15.5 z m -15.9,23.5 c 3.3,0 6.4,-0.6 9.6,-2 l 0,-14 c -3,-1.2 -6.3,-1.9 -9.6,-1.9 -4.7,0 -13.3,0.7 -13.3,8.7 0.1,6.4 4.4,9.2 13.3,9.2 z"
         id="path15"
         inkscape:connector-curvature="0"
         style="fill:#ffffff" /><path
         class="st0"
         d="m 475.4,284 c -3.9,-5.1 -9.5,-7.3 -15.2,-7.3 -12.8,0 -19.5,10.9 -19.5,24.1 0,13.2 6.8,24.1 19.6,24.1 6.5,0 11.9,-3 15.3,-7.5 l 4.7,4.4 c -4.5,5.8 -11.4,9.4 -20.1,9.4 -17.6,0 -26.7,-14.6 -26.7,-30.4 0,-15.9 9.3,-30.3 26.6,-30.3 8.6,0 15.6,3.5 20.1,9.4 l -4.8,4.1 z"
         id="path17"
         inkscape:connector-curvature="0"
         style="fill:#ffffff" /><path
         class="st0"
         d="m 525.5,310.3 -33.3,0 c 0.5,8.2 5.7,15.1 14.6,15.1 4.4,0 7.5,-1.2 11.2,-3.3 l 3.3,4.8 c -4.3,2.9 -9.4,4.4 -14.7,4.4 -14.1,0 -21.1,-10.8 -21.1,-22.6 0,-11.6 6.6,-22.2 20.6,-22.2 14,0 20.3,12.2 19.4,23.8 z m -6.6,-5.1 c -0.3,-5.9 -4.4,-12.7 -12.9,-12.7 -8,0 -12.4,5.6 -13.5,12.7 l 26.4,0 z"
         id="path19"
         inkscape:connector-curvature="0"
         style="fill:#ffffff" /><path
         class="st0"
         d="m 567.6,302.3 0,28.4 -6.5,0 0,-26.7 c 0,-7.1 -5.5,-11 -11.2,-11 -3.3,0 -7,0.9 -10.3,2.2 l 0,35.6 -6.6,0 0,-40 c 4.8,-1.9 9.6,-4.1 17.1,-4.1 7.7,-0.1 17.5,5.3 17.5,15.6 z"
         id="path21"
         inkscape:connector-curvature="0"
         style="fill:#ffffff" /><path
         class="st0"
         d="m 595.9,324 0,5.6 c -0.4,0.5 -3.2,1.1 -4.7,1.1 -7.7,0 -14.3,-3.2 -14.3,-13.6 l 0,-39.2 6.5,-0.5 0,9.8 11.7,0 -0.5,5.6 -11.1,0 0,23.4 c 0,6.5 2.8,8.5 7.9,8.5 1.6,0 3.9,-0.4 4.5,-0.7 z"
         id="path23"
         inkscape:connector-curvature="0"
         style="fill:#ffffff" /><path
         class="st0"
         d="m 630.1,294.2 c -2.3,-0.8 -5.4,-1.3 -8.2,-1.3 -5.8,0 -11,4.2 -11,11.3 l 0,26.5 -6.5,0 0,-28.5 c 0,-10.1 8.9,-15.6 16.6,-15.6 4.4,0 8.1,0.7 10.9,1.9 l -1.8,5.7 z"
         id="path25"
         inkscape:connector-curvature="0"
         style="fill:#ffffff" /><path
         class="st0"
         d="m 674.6,310.3 -33.3,0 c 0.5,8.2 5.7,15.1 14.6,15.1 4.4,0 7.5,-1.2 11.2,-3.3 l 3.3,4.8 c -4.3,2.9 -9.4,4.4 -14.7,4.4 -14.1,0 -21.1,-10.8 -21.1,-22.6 0,-11.6 6.6,-22.2 20.6,-22.2 14.1,0.1 20.3,12.2 19.4,23.8 z m -6.7,-5.1 c -0.3,-5.9 -4.4,-12.7 -12.9,-12.7 -8,0 -12.4,5.6 -13.5,12.7 l 26.4,0 z"
         id="path27"
         inkscape:connector-curvature="0"
         style="fill:#ffffff" /><path
         class="st0"
         d="m 717.4,327.3 c -4.8,1.9 -9.5,4.1 -17.2,4.1 -13.8,0 -20.5,-10.7 -20.5,-22.4 0,-11.6 6.8,-22.3 20.5,-22.3 4,0 7.5,0.7 10.7,1.6 l 0,-17.3 6.5,-0.5 0,56.8 z m -17,-1.9 c 3.6,0 6.9,-0.8 10.5,-2.6 l 0,-27.5 c -3,-1.4 -6.7,-2.4 -10.5,-2.4 -9.2,0 -14,7.6 -14,16.3 0,8.7 4.8,16.2 14,16.2 z"
         id="path29"
         inkscape:connector-curvature="0"
         style="fill:#ffffff" /></g><g
       id="g31"><polygon
         class="st0"
         points="160.6,276.3 147.3,277.5 141.7,267.9 148.3,256.4 158.7,255.5 165.3,263.9 "
         id="polygon33"
         style="fill:#ffffff" /><path
         class="st0"
         d="M 125.9,245.7"
         id="path35"
         inkscape:connector-curvature="0"
         style="fill:#ffffff" /><path
         class="st0"
         d="m 212.6,245.7 -3.3,0.7 5.9,9.7 9.3,9.6 3.2,0 c 0,-0.1 -5.2,-13.9 -15.1,-20 z"
         id="path37"
         inkscape:connector-curvature="0"
         style="fill:#ffffff" /><polygon
         class="st0"
         points="223.8,280.1 216.3,280.9 207.5,269.7 206.7,259.1 214.4,258.2 222.8,267.4 "
         id="polygon39"
         style="fill:#ffffff" /><polygon
         class="st0"
         points="194,270.5 184.4,261.4 184.4,249.9 192.2,249.9 203.4,258.6 203.9,269.3 "
         id="polygon41"
         style="fill:#ffffff" /><polygon
         class="st0"
         points="187,286 173.1,287.8 164.7,277.5 169.2,264.9 180.8,263.7 190.6,273.6 "
         id="polygon43"
         style="fill:#ffffff" /><polygon
         class="st0"
         points="210.9,297.9 199,299 190.6,287.6 193.9,274.5 205.5,273.2 213.6,283.8 "
         id="polygon45"
         style="fill:#ffffff" /><polygon
         class="st0"
         points="190.6,314.8 177,316.6 168.1,306 173.9,292.1 187.8,290.5 196,302.1 "
         id="polygon47"
         style="fill:#ffffff" /><polygon
         class="st0"
         points="150.3,306.1 141.7,294.9 147.8,281.8 160.7,280.4 169.3,290.5 164,304.8 "
         id="polygon49"
         style="fill:#ffffff" /><polygon
         class="st0"
         points="226.1,308.5 229.8,295.5 224.5,283.7 216.9,284.5 214.4,299 218.3,309.3 "
         id="polygon51"
         style="fill:#ffffff" /><path
         class="st0"
         d="m 228.8,268 -3.2,0 1.1,13 5.2,11.7 3.7,-0.5 -0.7,-10.5 c -0.1,0 -2.5,-9.7 -6.1,-13.7 z"
         id="path53"
         inkscape:connector-curvature="0"
         style="fill:#ffffff" /><polygon
         class="st0"
         points="210,324.8 199.1,326.3 194.3,316.2 199.5,303.5 211.4,302.4 215.9,312.6 "
         id="polygon55"
         style="fill:#ffffff" /><polygon
         class="st0"
         points="217.8,334.6 212.1,335.3 212.1,326.3 218.4,313.5 226,312.8 226,322.9 "
         id="polygon57"
         style="fill:#ffffff" /><path
         class="st0"
         d="m 235.5,295.3 -3.1,0.4 -3.8,13.6 0,11.6 2.1,0 4.3,-12.4 c 0,0 0.8,-10.1 0.5,-13.2 z"
         id="path59"
         inkscape:connector-curvature="0"
         style="fill:#ffffff" /><polygon
         class="st0"
         points="156.9,332.8 147.4,322.9 150.9,309.6 164.7,308.5 173.9,319.6 169.3,331.6 "
         id="polygon61"
         style="fill:#ffffff" /><polygon
         class="st0"
         points="190.4,339.3 196,329.1 191.2,319.2 177.6,320.7 172.6,333.1 179.4,340.3 "
         id="polygon63"
         style="fill:#ffffff" /><polygon
         class="st0"
         points="202.1,346.4 194.3,347.9 192.6,340.6 199.2,329.9 209.3,328.5 209.3,337.6 "
         id="polygon65"
         style="fill:#ffffff" /><polygon
         class="st0"
         points="133.5,322.5 124.5,311.7 128.2,297.4 138.3,297.4 146.8,309.1 144,321.5 "
         id="polygon67"
         style="fill:#ffffff" /><polygon
         class="st0"
         points="153.5,345 143.7,345 133.5,337.1 133.5,326.1 144,325.3 154,335 "
         id="polygon69"
         style="fill:#ffffff" /><path
         class="st0"
         d="m 229.8,323.9 -2.2,0 -7.8,11.2 c 0,0 -3.8,7.9 -3.9,8.4 -0.1,0.4 8.8,-6.1 13.9,-19.6 z"
         id="path71"
         inkscape:connector-curvature="0"
         style="fill:#ffffff" /><path
         class="st0"
         d="m 216.7,337.4 c 0,0 -2.1,10.3 -16.8,16.1 l 11.9,-15.1 4.9,-1 z"
         id="path73"
         inkscape:connector-curvature="0"
         style="fill:#ffffff" /><polygon
         class="st0"
         points="180.7,356 175.8,351.4 179,343.3 190.6,342.3 191.7,349.2 186.1,356 "
         id="polygon75"
         style="fill:#ffffff" /><polygon
         class="st0"
         points="165.2,352.2 173,351.3 176.2,342.3 169.3,335 157.3,336.3 156.5,345.5 "
         id="polygon77"
         style="fill:#ffffff" /><polygon
         class="st0"
         points="159.8,359 150.4,355.1 146,347.2 154.6,347.2 163,353.5 164.9,359 "
         id="polygon79"
         style="fill:#ffffff" /><polygon
         class="st0"
         points="147.4,354.3 142.2,354.3 130.8,346.9 126.5,339.5 133.5,339.5 143.7,347.9 "
         id="polygon81"
         style="fill:#ffffff" /><path
         class="st0"
         d="m 126.8,348.3 3.2,0 22.2,13.5 c 0,0 -17,-5.9 -25.4,-13.5 z"
         id="path83"
         inkscape:connector-curvature="0"
         style="fill:#ffffff" /><polygon
         class="st0"
         points="176.7,363.1 167.5,359 165.9,354.3 174.3,353.4 179,357.6 "
         id="polygon85"
         style="fill:#ffffff" /><path
         class="st0"
         d="m 194.3,349.8 6.8,-1 c 0,0 -5.4,9.4 -12.2,11.7 l -2.5,1 1.1,-3.6 6.8,-8.1 z"
         id="path87"
         inkscape:connector-curvature="0"
         style="fill:#ffffff" /><path
         class="st0"
         d="m 213.5,346.1 c 0,0 -9.7,8.7 -14.2,8.9 l -5.6,4.2 c 0.1,0 15.3,-6 19.8,-13.1 z"
         id="path89"
         inkscape:connector-curvature="0"
         style="fill:#ffffff" /><path
         class="st0"
         d="m 180.8,357.9 5,0 -1.1,3.8 c 0,0 -2.8,1.6 -6.4,1.5 l 2.5,-5.3 z"
         id="path91"
         inkscape:connector-curvature="0"
         style="fill:#ffffff" /><path
         class="st0"
         d="m 145.3,356 3.4,0 18.6,7.5 c 0,0 -8,-0.1 -13.9,-1.8 l -8.1,-5.7 z"
         id="path93"
         inkscape:connector-curvature="0"
         style="fill:#ffffff" /><path
         class="st0"
         d="m 174.3,235.4 1.2,6.6 8,5.6 8.5,0.2 c 0,0 -2.5,-6 -3.5,-8.1 l -7.5,-4.2 -6.7,0 z"
         id="path95"
         inkscape:connector-curvature="0"
         style="fill:#ffffff" /><path
         class="st0"
         d="m 189,232.8 7,5 c 0,0 6.4,1.7 11.7,6.9 l 3,-0.5 c 0,-0.1 -7.8,-9.4 -21.7,-11.4 z"
         id="path97"
         inkscape:connector-curvature="0"
         style="fill:#ffffff" /><path
         class="st0"
         d="m 162.2,360.4 4.7,0 8,3 c 0,0 -4.1,0.4 -6.8,-0.4"
         id="path99"
         inkscape:connector-curvature="0"
         style="fill:#ffffff" /><polygon
         class="st0"
         points="194.5,248.3 190.6,240 195.4,239.5 212.4,256 205.6,256.6 "
         id="polygon101"
         style="fill:#ffffff" /><path
         class="st0"
         d="m 212.4,256 -4.5,-7.9 c 0,0 -0.6,-1.3 -2,-2.4 -1.4,-1.1 -6.6,-5.3 -10.6,-6.1"
         id="path103"
         inkscape:connector-curvature="0"
         style="fill:#ffffff" /></g></g></svg>